<svg xmlns="http://www.w3.org/2000/svg" xmlns:xlink="http://www.w3.org/1999/xlink" width="200" zoomAndPan="magnify" viewBox="0 0 150 74.999997" height="100" preserveAspectRatio="xMidYMid meet" version="1.2"><defs><clipPath id="f3e7156410"><path d="M 104.316406 10.5 L 106 10.5 L 106 12 L 104.316406 12 Z M 104.316406 10.5 "/></clipPath><clipPath id="404a232af7"><path d="M 112 10.5 L 116 10.5 L 116 12 L 112 12 Z M 112 10.5 "/></clipPath><clipPath id="e1136587c5"><path d="M 115 10.5 L 117.816406 10.5 L 117.816406 13 L 115 13 Z M 115 10.5 "/></clipPath><clipPath id="cc89af2f78"><path d="M 104.316406 12 L 105 12 L 105 13 L 104.316406 13 Z M 104.316406 12 "/></clipPath><clipPath id="f59832200e"><path d="M 116 12 L 117.816406 12 L 117.816406 17 L 116 17 Z M 116 12 "/></clipPath><clipPath id="ab3180e94d"><path d="M 104.316406 13 L 105 13 L 105 14 L 104.316406 14 Z M 104.316406 13 "/></clipPath><clipPath id="a2deec189e"><path d="M 104.316406 13 L 106 13 L 106 15 L 104.316406 15 Z M 104.316406 13 "/></clipPath><clipPath id="ea2eccf28e"><path d="M 104.316406 17 L 105 17 L 105 18 L 104.316406 18 Z M 104.316406 17 "/></clipPath><clipPath id="2d383b9561"><path d="M 114 16 L 117.816406 16 L 117.816406 20 L 114 20 Z M 114 16 "/></clipPath><clipPath id="4871aadbf6"><path d="M 104.316406 18 L 105 18 L 105 20 L 104.316406 20 Z M 104.316406 18 "/></clipPath><clipPath id="a06e5d66b7"><path d="M 116 18 L 117.816406 18 L 117.816406 20 L 116 20 Z M 116 18 "/></clipPath><clipPath id="a44ccf73e0"><path d="M 115 19 L 117.816406 19 L 117.816406 21 L 115 21 Z M 115 19 "/></clipPath><clipPath id="3ca95451f5"><path d="M 104.316406 19 L 106 19 L 106 21 L 104.316406 21 Z M 104.316406 19 "/></clipPath><clipPath id="9156ec0318"><path d="M 116 20 L 117.816406 20 L 117.816406 22 L 116 22 Z M 116 20 "/></clipPath><clipPath id="313001791d"><path d="M 104.316406 10.5 L 114 10.5 L 114 23 L 104.316406 23 Z M 104.316406 10.5 "/></clipPath><clipPath id="6f62bc3a97"><path d="M 115 21 L 117.816406 21 L 117.816406 24 L 115 24 Z M 115 21 "/></clipPath><clipPath id="028dea82af"><path d="M 104.316406 22 L 106 22 L 106 24 L 104.316406 24 Z M 104.316406 22 "/></clipPath><clipPath id="e28517138d"><path d="M 116 23 L 117.816406 23 L 117.816406 24 L 116 24 Z M 116 23 "/></clipPath></defs><g id="6d04f9cb72"><rect x="0" width="150" y="0" height="74.999997" style="fill:#ffffff;fill-opacity:1;stroke:none;"/><rect x="0" width="150" y="0" height="74.999997" style="fill:#1a2b4b;fill-opacity:1;stroke:none;"/><g style="fill:#ffffff;fill-opacity:1;"><g transform="translate(-0.903905, 46.499995)"><path style="stroke:none" d="M 10.421875 -19.265625 C 17.160156 -19.265625 20.53125 -16.050781 20.53125 -9.625 C 20.53125 -3.207031 17.160156 0 10.421875 0 L 2.078125 0 L 2.078125 -19.265625 Z M 8.265625 -4.625 L 10.296875 -4.625 C 12.898438 -4.625 14.203125 -6.015625 14.203125 -8.796875 L 14.203125 -10.46875 C 14.203125 -13.25 12.898438 -14.640625 10.296875 -14.640625 L 8.265625 -14.640625 Z M 8.265625 -4.625 "/></g></g><g style="fill:#ffffff;fill-opacity:1;"><g transform="translate(20.877118, 46.499995)"><path style="stroke:none" d="M 1.875 -16.515625 L 1.875 -20.296875 L 7.453125 -20.296875 L 7.453125 -16.515625 Z M 1.875 0 L 1.875 -14.78125 L 7.453125 -14.78125 L 7.453125 0 Z M 1.875 0 "/></g></g><g style="fill:#ffffff;fill-opacity:1;"><g transform="translate(30.199841, 46.499995)"><path style="stroke:none" d="M 18.3125 -17.5625 C 18.3125 -16.414062 18.023438 -15.535156 17.453125 -14.921875 C 16.890625 -14.304688 16.035156 -13.847656 14.890625 -13.546875 C 15.429688 -13.140625 15.851562 -12.660156 16.15625 -12.109375 C 16.46875 -11.554688 16.625 -10.972656 16.625 -10.359375 C 16.625 -8.796875 16.03125 -7.609375 14.84375 -6.796875 C 13.664062 -5.992188 12.191406 -5.59375 10.421875 -5.59375 L 8.28125 -5.59375 C 7.113281 -5.59375 6.53125 -5.320312 6.53125 -4.78125 C 6.53125 -4.519531 6.660156 -4.3125 6.921875 -4.15625 C 7.179688 -4 7.632812 -3.921875 8.28125 -3.921875 L 13.328125 -3.921875 C 14.972656 -3.921875 16.210938 -3.488281 17.046875 -2.625 C 17.890625 -1.769531 18.3125 -0.625 18.3125 0.8125 C 18.3125 1.875 18.03125 2.785156 17.46875 3.546875 C 16.90625 4.316406 16.148438 4.894531 15.203125 5.28125 C 14.253906 5.675781 13.21875 5.875 12.09375 5.875 L 3.859375 5.875 C 3.191406 5.875 2.570312 5.710938 2 5.390625 C 1.425781 5.078125 0.972656 4.644531 0.640625 4.09375 C 0.304688 3.550781 0.140625 2.941406 0.140625 2.265625 C 0.140625 1.535156 0.363281 0.875 0.8125 0.28125 C 1.257812 -0.300781 1.816406 -0.738281 2.484375 -1.03125 C 2.035156 -1.351562 1.679688 -1.738281 1.421875 -2.1875 C 1.160156 -2.632812 1.03125 -3.117188 1.03125 -3.640625 C 1.03125 -4.367188 1.300781 -5.023438 1.84375 -5.609375 C 2.382812 -6.203125 3.054688 -6.597656 3.859375 -6.796875 C 3.128906 -7.265625 2.550781 -7.800781 2.125 -8.40625 C 1.695312 -9.019531 1.484375 -9.660156 1.484375 -10.328125 C 1.484375 -12.046875 2.175781 -13.273438 3.5625 -14.015625 C 4.957031 -14.753906 6.800781 -15.125 9.09375 -15.125 C 10.101562 -15.125 10.914062 -15.066406 11.53125 -14.953125 C 12.445312 -15.523438 13.039062 -16.050781 13.3125 -16.53125 C 13.582031 -17.007812 13.71875 -17.351562 13.71875 -17.5625 Z M 9.046875 -12.203125 C 8.429688 -12.203125 7.925781 -12.039062 7.53125 -11.71875 C 7.132812 -11.40625 6.9375 -10.953125 6.9375 -10.359375 C 6.9375 -9.742188 7.117188 -9.28125 7.484375 -8.96875 C 7.847656 -8.664062 8.367188 -8.515625 9.046875 -8.515625 C 9.710938 -8.515625 10.238281 -8.664062 10.625 -8.96875 C 11.007812 -9.28125 11.203125 -9.742188 11.203125 -10.359375 C 11.203125 -10.972656 11.007812 -11.429688 10.625 -11.734375 C 10.238281 -12.046875 9.710938 -12.203125 9.046875 -12.203125 Z M 6.890625 0 C 6.460938 0 6.113281 0.113281 5.84375 0.34375 C 5.570312 0.582031 5.4375 0.914062 5.4375 1.34375 C 5.4375 1.769531 5.570312 2.113281 5.84375 2.375 C 6.125 2.632812 6.472656 2.765625 6.890625 2.765625 L 11.25 2.765625 C 11.664062 2.765625 12.015625 2.640625 12.296875 2.390625 C 12.585938 2.140625 12.734375 1.800781 12.734375 1.375 C 12.734375 0.945312 12.59375 0.609375 12.3125 0.359375 C 12.039062 0.117188 11.6875 0 11.25 0 Z M 6.890625 0 "/></g></g><g style="fill:#ffffff;fill-opacity:1;"><g transform="translate(48.87329, 46.499995)"><path style="stroke:none" d="M 1.875 -16.515625 L 1.875 -20.296875 L 7.453125 -20.296875 L 7.453125 -16.515625 Z M 1.875 0 L 1.875 -14.78125 L 7.453125 -14.78125 L 7.453125 0 Z M 1.875 0 "/></g></g><g style="fill:#ffffff;fill-opacity:1;"><g transform="translate(58.196012, 46.499995)"><path style="stroke:none" d="M 11.53125 -14.78125 L 11.53125 -11 L 8.40625 -11 L 8.40625 -5.375 C 8.40625 -4.707031 8.515625 -4.21875 8.734375 -3.90625 C 8.960938 -3.59375 9.375 -3.4375 9.96875 -3.4375 L 11.53125 -3.4375 L 11.53125 -0.171875 C 11.082031 -0.015625 10.503906 0.109375 9.796875 0.203125 C 9.085938 0.296875 8.472656 0.34375 7.953125 0.34375 C 6.304688 0.34375 5.039062 0.046875 4.15625 -0.546875 C 3.269531 -1.148438 2.828125 -2.171875 2.828125 -3.609375 L 2.828125 -11 L 0.75 -11 L 0.75 -14.78125 L 3.046875 -14.78125 L 4.25 -19.265625 L 8.40625 -19.265625 L 8.40625 -14.78125 Z M 11.53125 -14.78125 "/></g></g><g style="fill:#00a693;fill-opacity:1;"><g transform="translate(33.949219, 46.499995)"><path style="stroke:none" d=""/></g></g><g style="fill:#00a693;fill-opacity:1;"><g transform="translate(43.271942, 46.499995)"><path style="stroke:none" d=""/></g></g><g style="fill:#00a693;fill-opacity:1;"><g transform="translate(52.594664, 46.499995)"><path style="stroke:none" d=""/></g></g><g style="fill:#00a693;fill-opacity:1;"><g transform="translate(61.917387, 46.499995)"><path style="stroke:none" d=""/></g></g><g style="fill:#00a693;fill-opacity:1;"><g transform="translate(71.249997, 46.499995)"><path style="stroke:none" d="M 8.984375 -15.125 C 11.242188 -15.125 13.082031 -14.742188 14.5 -13.984375 C 15.914062 -13.234375 16.625 -12.003906 16.625 -10.296875 L 16.625 -4.53125 C 16.625 -4.21875 16.695312 -3.957031 16.84375 -3.75 C 17 -3.539062 17.226562 -3.4375 17.53125 -3.4375 L 18.53125 -3.4375 L 18.53125 -0.21875 C 18.476562 -0.1875 18.332031 -0.128906 18.09375 -0.046875 C 17.863281 0.0351562 17.535156 0.117188 17.109375 0.203125 C 16.679688 0.296875 16.1875 0.34375 15.625 0.34375 C 14.539062 0.34375 13.648438 0.179688 12.953125 -0.140625 C 12.253906 -0.472656 11.773438 -0.929688 11.515625 -1.515625 C 10.796875 -0.953125 10 -0.5 9.125 -0.15625 C 8.25 0.175781 7.222656 0.34375 6.046875 0.34375 C 2.578125 0.34375 0.84375 -1.039062 0.84375 -3.8125 C 0.84375 -5.25 1.226562 -6.34375 2 -7.09375 C 2.769531 -7.851562 3.882812 -8.375 5.34375 -8.65625 C 6.800781 -8.9375 8.707031 -9.078125 11.0625 -9.078125 L 11.0625 -9.796875 C 11.0625 -10.378906 10.859375 -10.816406 10.453125 -11.109375 C 10.054688 -11.410156 9.539062 -11.5625 8.90625 -11.5625 C 8.320312 -11.5625 7.820312 -11.457031 7.40625 -11.25 C 6.988281 -11.050781 6.78125 -10.726562 6.78125 -10.28125 L 6.78125 -10.15625 L 1.28125 -10.15625 C 1.269531 -10.25 1.265625 -10.382812 1.265625 -10.5625 C 1.265625 -11.957031 1.929688 -13.066406 3.265625 -13.890625 C 4.597656 -14.710938 6.503906 -15.125 8.984375 -15.125 Z M 11.0625 -6.4375 C 9.476562 -6.4375 8.304688 -6.265625 7.546875 -5.921875 C 6.785156 -5.578125 6.40625 -5.113281 6.40625 -4.53125 C 6.40625 -3.601562 7.039062 -3.140625 8.3125 -3.140625 C 9.039062 -3.140625 9.679688 -3.332031 10.234375 -3.71875 C 10.785156 -4.113281 11.0625 -4.601562 11.0625 -5.1875 Z M 11.0625 -6.4375 "/></g></g><g style="fill:#00a693;fill-opacity:1;"><g transform="translate(89.923446, 46.499995)"><path style="stroke:none" d="M 1.875 0 L 1.875 -20.296875 L 7.453125 -20.296875 L 7.453125 0 Z M 1.875 0 "/></g></g><g style="fill:#00a693;fill-opacity:1;"><g transform="translate(99.246169, 46.499995)"><path style="stroke:none" d="M 9.328125 -15.125 C 12.035156 -15.125 14.101562 -14.488281 15.53125 -13.21875 C 16.957031 -11.945312 17.671875 -10.003906 17.671875 -7.390625 L 17.671875 -6.4375 L 6.578125 -6.4375 C 6.578125 -5.375 6.816406 -4.570312 7.296875 -4.03125 C 7.773438 -3.488281 8.523438 -3.21875 9.546875 -3.21875 C 10.484375 -3.21875 11.171875 -3.410156 11.609375 -3.796875 C 12.046875 -4.191406 12.265625 -4.71875 12.265625 -5.375 L 17.671875 -5.375 C 17.671875 -3.582031 16.988281 -2.179688 15.625 -1.171875 C 14.257812 -0.160156 12.269531 0.34375 9.65625 0.34375 C 6.914062 0.34375 4.789062 -0.296875 3.28125 -1.578125 C 1.769531 -2.859375 1.015625 -4.796875 1.015625 -7.390625 C 1.015625 -9.929688 1.75 -11.851562 3.21875 -13.15625 C 4.695312 -14.46875 6.734375 -15.125 9.328125 -15.125 Z M 9.546875 -11.5625 C 7.796875 -11.5625 6.816406 -10.734375 6.609375 -9.078125 L 12.046875 -9.078125 C 12.046875 -9.835938 11.820312 -10.441406 11.375 -10.890625 C 10.9375 -11.335938 10.328125 -11.5625 9.546875 -11.5625 Z M 9.546875 -11.5625 "/></g></g><g style="fill:#00a693;fill-opacity:1;"><g transform="translate(117.919618, 46.499995)"><path style="stroke:none" d=""/></g></g><g style="fill:#00a693;fill-opacity:1;"><g transform="translate(127.24234, 46.499995)"><path style="stroke:none" d="M 1.703125 0 L 1.703125 -5.578125 L 7.640625 -5.578125 L 7.640625 0 Z M 1.703125 0 "/></g></g><path style=" stroke:none;fill-rule:nonzero;fill:#00a693;fill-opacity:1;" d="M 111.4375 16.667969 L 110.488281 16.667969 L 110.488281 17.617188 L 111.4375 17.617188 Z M 111.4375 16.667969 "/><path style=" stroke:none;fill-rule:nonzero;fill:#00a693;fill-opacity:1;" d="M 111.910156 18.09375 L 110.011719 18.09375 L 110.011719 16.195312 L 111.910156 16.195312 Z M 112.386719 15.71875 L 109.539062 15.71875 L 109.539062 18.566406 L 112.386719 18.566406 Z M 112.386719 15.71875 "/><g clip-rule="nonzero" clip-path="url(#f3e7156410)"><path style=" stroke:none;fill-rule:nonzero;fill:#00a693;fill-opacity:1;" d="M 105.265625 11.449219 L 105.265625 10.976562 L 104.792969 10.976562 L 104.792969 10.5 L 104.316406 10.5 L 104.316406 11.921875 L 104.792969 11.921875 L 104.792969 11.449219 Z M 105.265625 11.449219 "/></g><g clip-rule="nonzero" clip-path="url(#404a232af7)"><path style=" stroke:none;fill-rule:nonzero;fill:#00a693;fill-opacity:1;" d="M 113.335938 11.449219 L 114.285156 11.449219 L 114.285156 11.921875 L 114.757812 11.921875 L 114.757812 11.449219 L 115.234375 11.449219 L 115.234375 10.5 L 113.335938 10.5 L 113.335938 10.976562 L 112.859375 10.976562 L 112.859375 11.921875 L 113.335938 11.921875 Z M 113.335938 11.449219 "/></g><path style=" stroke:none;fill-rule:nonzero;fill:#00a693;fill-opacity:1;" d="M 110.488281 12.398438 L 110.488281 11.921875 L 110.011719 11.921875 L 110.011719 12.398438 Z M 110.488281 12.398438 "/><path style=" stroke:none;fill-rule:nonzero;fill:#00a693;fill-opacity:1;" d="M 113.808594 12.398438 L 113.808594 11.921875 L 113.335938 11.921875 L 113.335938 12.398438 Z M 113.808594 12.398438 "/><path style=" stroke:none;fill-rule:nonzero;fill:#00a693;fill-opacity:1;" d="M 115.234375 12.398438 L 115.234375 11.921875 L 114.757812 11.921875 L 114.757812 12.398438 Z M 115.234375 12.398438 "/><g clip-rule="nonzero" clip-path="url(#e1136587c5)"><path style=" stroke:none;fill-rule:nonzero;fill:#00a693;fill-opacity:1;" d="M 116.65625 12.398438 L 117.132812 12.398438 L 117.132812 12.871094 L 117.605469 12.871094 L 117.605469 11.921875 L 116.65625 11.921875 L 116.65625 10.976562 L 117.132812 10.976562 L 117.132812 10.5 L 115.707031 10.5 L 115.707031 11.449219 L 116.183594 11.449219 L 116.183594 12.871094 L 116.65625 12.871094 Z M 116.65625 12.398438 "/></g><g clip-rule="nonzero" clip-path="url(#cc89af2f78)"><path style=" stroke:none;fill-rule:nonzero;fill:#00a693;fill-opacity:1;" d="M 104.316406 12.871094 L 104.792969 12.871094 L 104.792969 12.398438 L 104.316406 12.398438 Z M 104.316406 12.871094 "/></g><path style=" stroke:none;fill-rule:nonzero;fill:#00a693;fill-opacity:1;" d="M 114.285156 12.871094 L 114.757812 12.871094 L 114.757812 12.398438 L 114.285156 12.398438 Z M 114.285156 12.871094 "/><path style=" stroke:none;fill-rule:nonzero;fill:#00a693;fill-opacity:1;" d="M 113.808594 13.347656 L 114.285156 13.347656 L 114.285156 12.871094 L 113.808594 12.871094 Z M 113.808594 13.347656 "/><path style=" stroke:none;fill-rule:nonzero;fill:#00a693;fill-opacity:1;" d="M 116.183594 12.871094 L 115.707031 12.871094 L 115.707031 13.347656 L 116.183594 13.347656 Z M 116.183594 12.871094 "/><g clip-rule="nonzero" clip-path="url(#f59832200e)"><path style=" stroke:none;fill-rule:nonzero;fill:#00a693;fill-opacity:1;" d="M 116.65625 12.871094 L 116.65625 13.820312 L 117.132812 13.820312 L 117.132812 15.246094 L 116.183594 15.246094 L 116.183594 15.71875 L 116.65625 15.71875 L 116.65625 16.195312 L 117.132812 16.195312 L 117.132812 16.667969 L 117.605469 16.667969 L 117.605469 13.347656 L 117.132812 13.347656 L 117.132812 12.871094 Z M 116.65625 12.871094 "/></g><g clip-rule="nonzero" clip-path="url(#ab3180e94d)"><path style=" stroke:none;fill-rule:nonzero;fill:#00a693;fill-opacity:1;" d="M 104.316406 13.347656 L 104.316406 13.820312 L 104.792969 13.820312 L 104.792969 13.347656 Z M 104.316406 13.347656 "/></g><path style=" stroke:none;fill-rule:nonzero;fill:#00a693;fill-opacity:1;" d="M 106.691406 13.820312 L 106.691406 13.347656 L 106.214844 13.347656 L 106.214844 13.820312 Z M 106.691406 13.820312 "/><path style=" stroke:none;fill-rule:nonzero;fill:#00a693;fill-opacity:1;" d="M 114.757812 13.820312 L 114.757812 13.347656 L 114.285156 13.347656 L 114.285156 13.820312 Z M 114.757812 13.820312 "/><path style=" stroke:none;fill-rule:nonzero;fill:#00a693;fill-opacity:1;" d="M 115.234375 13.347656 L 115.234375 14.296875 L 115.707031 14.296875 L 115.707031 13.347656 Z M 115.234375 13.347656 "/><g clip-rule="nonzero" clip-path="url(#a2deec189e)"><path style=" stroke:none;fill-rule:nonzero;fill:#00a693;fill-opacity:1;" d="M 104.792969 13.820312 L 104.792969 14.296875 L 105.265625 14.296875 L 105.265625 13.820312 Z M 104.792969 13.820312 "/></g><path style=" stroke:none;fill-rule:nonzero;fill:#00a693;fill-opacity:1;" d="M 116.183594 14.296875 L 116.65625 14.296875 L 116.65625 13.820312 L 116.183594 13.820312 Z M 116.183594 14.296875 "/><path style=" stroke:none;fill-rule:nonzero;fill:#00a693;fill-opacity:1;" d="M 115.707031 16.667969 L 116.183594 16.667969 L 116.183594 15.71875 L 115.707031 15.71875 Z M 115.707031 16.667969 "/><path style=" stroke:none;fill-rule:nonzero;fill:#00a693;fill-opacity:1;" d="M 112.859375 15.71875 L 112.859375 17.144531 L 113.335938 17.144531 L 113.335938 15.71875 Z M 112.859375 15.71875 "/><path style=" stroke:none;fill-rule:nonzero;fill:#00a693;fill-opacity:1;" d="M 115.234375 15.246094 L 116.183594 15.246094 L 116.183594 14.296875 L 115.707031 14.296875 L 115.707031 14.769531 L 114.757812 14.769531 L 114.757812 15.246094 L 114.285156 15.246094 L 114.285156 14.769531 L 114.757812 14.769531 L 114.757812 14.296875 L 113.808594 14.296875 L 113.808594 15.71875 L 114.285156 15.71875 L 114.285156 16.195312 L 114.757812 16.195312 L 114.757812 16.667969 L 115.234375 16.667969 Z M 115.234375 15.246094 "/><g clip-rule="nonzero" clip-path="url(#ea2eccf28e)"><path style=" stroke:none;fill-rule:nonzero;fill:#00a693;fill-opacity:1;" d="M 104.316406 17.144531 L 104.316406 17.617188 L 104.792969 17.617188 L 104.792969 17.144531 Z M 104.316406 17.144531 "/></g><g clip-rule="nonzero" clip-path="url(#2d383b9561)"><path style=" stroke:none;fill-rule:nonzero;fill:#00a693;fill-opacity:1;" d="M 115.707031 17.144531 L 115.707031 16.667969 L 115.234375 16.667969 L 115.234375 18.09375 L 115.707031 18.09375 L 115.707031 18.566406 L 114.757812 18.566406 L 114.757812 19.042969 L 116.183594 19.042969 L 116.183594 18.566406 L 116.65625 18.566406 L 116.65625 18.09375 L 116.183594 18.09375 L 116.183594 17.617188 L 117.132812 17.617188 L 117.132812 17.144531 L 116.65625 17.144531 L 116.65625 16.667969 L 116.183594 16.667969 L 116.183594 17.144531 Z M 115.707031 17.144531 "/></g><path style=" stroke:none;fill-rule:nonzero;fill:#00a693;fill-opacity:1;" d="M 112.859375 18.09375 L 113.335938 18.09375 L 113.335938 17.617188 L 112.859375 17.617188 Z M 112.859375 18.09375 "/><path style=" stroke:none;fill-rule:nonzero;fill:#00a693;fill-opacity:1;" d="M 113.808594 16.667969 L 113.808594 17.144531 L 113.335938 17.144531 L 113.335938 17.617188 L 114.285156 17.617188 L 114.285156 18.566406 L 114.757812 18.566406 L 114.757812 16.667969 Z M 113.808594 16.667969 "/><g clip-rule="nonzero" clip-path="url(#4871aadbf6)"><path style=" stroke:none;fill-rule:nonzero;fill:#00a693;fill-opacity:1;" d="M 104.316406 19.992188 L 104.792969 19.992188 L 104.792969 18.09375 L 104.316406 18.09375 Z M 104.316406 19.992188 "/></g><path style=" stroke:none;fill-rule:nonzero;fill:#00a693;fill-opacity:1;" d="M 108.113281 18.566406 L 108.589844 18.566406 L 108.589844 18.09375 L 108.113281 18.09375 Z M 108.113281 18.566406 "/><path style=" stroke:none;fill-rule:nonzero;fill:#00a693;fill-opacity:1;" d="M 113.808594 19.042969 L 113.808594 18.566406 L 112.859375 18.566406 L 112.859375 19.042969 L 111.4375 19.042969 L 111.4375 19.515625 L 111.910156 19.515625 L 111.910156 19.992188 L 112.386719 19.992188 L 112.386719 19.515625 L 113.335938 19.515625 L 113.335938 19.042969 Z M 113.808594 19.042969 "/><path style=" stroke:none;fill-rule:nonzero;fill:#00a693;fill-opacity:1;" d="M 110.960938 19.515625 L 110.960938 19.042969 L 110.011719 19.042969 L 110.011719 19.515625 Z M 110.960938 19.515625 "/><path style=" stroke:none;fill-rule:nonzero;fill:#00a693;fill-opacity:1;" d="M 114.757812 19.042969 L 114.285156 19.042969 L 114.285156 19.515625 L 114.757812 19.515625 Z M 114.757812 19.042969 "/><g clip-rule="nonzero" clip-path="url(#a06e5d66b7)"><path style=" stroke:none;fill-rule:nonzero;fill:#00a693;fill-opacity:1;" d="M 117.132812 19.515625 L 117.132812 19.042969 L 117.605469 19.042969 L 117.605469 18.566406 L 116.65625 18.566406 L 116.65625 19.515625 Z M 117.132812 19.515625 "/></g><path style=" stroke:none;fill-rule:nonzero;fill:#00a693;fill-opacity:1;" d="M 113.335938 19.515625 L 113.335938 19.992188 L 114.285156 19.992188 L 114.285156 19.515625 Z M 113.335938 19.515625 "/><path style=" stroke:none;fill-rule:nonzero;fill:#00a693;fill-opacity:1;" d="M 115.234375 19.515625 L 114.757812 19.515625 L 114.757812 19.992188 L 114.285156 19.992188 L 114.285156 20.464844 L 114.757812 20.464844 L 114.757812 21.414062 L 115.234375 21.414062 L 115.234375 20.941406 L 115.707031 20.941406 L 115.707031 19.992188 L 115.234375 19.992188 Z M 115.234375 19.515625 "/><g clip-rule="nonzero" clip-path="url(#a44ccf73e0)"><path style=" stroke:none;fill-rule:nonzero;fill:#00a693;fill-opacity:1;" d="M 115.707031 19.992188 L 116.183594 19.992188 L 116.183594 20.464844 L 117.605469 20.464844 L 117.605469 19.992188 L 116.65625 19.992188 L 116.65625 19.515625 L 115.707031 19.515625 Z M 115.707031 19.992188 "/></g><g clip-rule="nonzero" clip-path="url(#3ca95451f5)"><path style=" stroke:none;fill-rule:nonzero;fill:#00a693;fill-opacity:1;" d="M 105.265625 20.464844 L 105.265625 19.992188 L 104.792969 19.992188 L 104.792969 20.464844 Z M 105.265625 20.464844 "/></g><path style=" stroke:none;fill-rule:nonzero;fill:#00a693;fill-opacity:1;" d="M 109.0625 20.941406 L 109.0625 19.992188 L 109.539062 19.992188 L 109.539062 19.042969 L 109.0625 19.042969 L 109.0625 19.515625 L 108.589844 19.515625 L 108.589844 20.941406 Z M 109.0625 20.941406 "/><path style=" stroke:none;fill-rule:nonzero;fill:#00a693;fill-opacity:1;" d="M 111.4375 20.464844 L 110.960938 20.464844 L 110.960938 20.941406 L 110.488281 20.941406 L 110.488281 21.890625 L 110.960938 21.890625 L 110.960938 21.414062 L 111.4375 21.414062 L 111.4375 20.941406 L 111.910156 20.941406 L 111.910156 19.992188 L 111.4375 19.992188 Z M 111.4375 20.464844 "/><path style=" stroke:none;fill-rule:nonzero;fill:#00a693;fill-opacity:1;" d="M 112.859375 20.464844 L 113.335938 20.464844 L 113.335938 19.992188 L 112.859375 19.992188 Z M 112.859375 20.464844 "/><path style=" stroke:none;fill-rule:nonzero;fill:#00a693;fill-opacity:1;" d="M 110.011719 20.941406 L 110.011719 19.992188 L 109.539062 19.992188 L 109.539062 20.941406 Z M 110.011719 20.941406 "/><path style=" stroke:none;fill-rule:nonzero;fill:#00a693;fill-opacity:1;" d="M 112.859375 20.941406 L 112.386719 20.941406 L 112.386719 21.414062 L 112.859375 21.414062 Z M 112.859375 20.941406 "/><path style=" stroke:none;fill-rule:nonzero;fill:#00a693;fill-opacity:1;" d="M 114.285156 20.941406 L 113.808594 20.941406 L 113.808594 21.414062 L 113.335938 21.414062 L 113.335938 21.890625 L 114.757812 21.890625 L 114.757812 21.414062 L 114.285156 21.414062 Z M 114.285156 20.941406 "/><g clip-rule="nonzero" clip-path="url(#9156ec0318)"><path style=" stroke:none;fill-rule:nonzero;fill:#00a693;fill-opacity:1;" d="M 117.132812 20.941406 L 116.183594 20.941406 L 116.183594 21.414062 L 117.132812 21.414062 Z M 117.132812 20.941406 "/></g><g clip-rule="nonzero" clip-path="url(#313001791d)"><path style=" stroke:none;fill-rule:nonzero;fill:#00a693;fill-opacity:1;" d="M 109.539062 11.921875 L 110.011719 11.921875 L 110.011719 11.449219 L 110.488281 11.449219 L 110.488281 11.921875 L 110.960938 11.921875 L 110.960938 12.871094 L 110.488281 12.871094 L 110.488281 13.347656 L 110.011719 13.347656 L 110.011719 12.398438 L 109.539062 12.398438 Z M 111.4375 12.398438 L 111.910156 12.398438 L 111.910156 13.347656 L 111.4375 13.347656 Z M 106.214844 21.414062 L 106.214844 20.464844 L 106.691406 20.464844 L 106.691406 20.941406 L 107.164062 20.941406 L 107.164062 20.464844 L 107.640625 20.464844 L 107.640625 20.941406 L 108.113281 20.941406 L 108.113281 19.515625 L 108.589844 19.515625 L 108.589844 19.042969 L 107.640625 19.042969 L 107.640625 18.566406 L 106.691406 18.566406 L 106.691406 19.042969 L 107.164062 19.042969 L 107.164062 19.515625 L 107.640625 19.515625 L 107.640625 19.992188 L 106.214844 19.992188 L 106.214844 18.566406 L 106.691406 18.566406 L 106.691406 18.09375 L 106.214844 18.09375 L 106.214844 17.617188 L 107.164062 17.617188 L 107.164062 18.09375 L 107.640625 18.09375 L 107.640625 17.617188 L 108.589844 17.617188 L 108.589844 18.09375 L 109.0625 18.09375 L 109.0625 16.667969 L 108.589844 16.667969 L 108.589844 17.144531 L 108.113281 17.144531 L 108.113281 16.667969 L 107.640625 16.667969 L 107.640625 15.71875 L 108.113281 15.71875 L 108.113281 16.667969 L 108.589844 16.667969 L 108.589844 16.195312 L 109.0625 16.195312 L 109.0625 15.71875 L 108.589844 15.71875 L 108.589844 14.769531 L 109.0625 14.769531 L 109.0625 14.296875 L 110.011719 14.296875 L 110.011719 13.820312 L 110.488281 13.820312 L 110.488281 14.296875 L 110.011719 14.296875 L 110.011719 14.769531 L 109.539062 14.769531 L 109.539062 15.246094 L 111.4375 15.246094 L 111.4375 14.296875 L 111.910156 14.296875 L 111.910156 15.246094 L 112.859375 15.246094 L 112.859375 14.769531 L 113.335938 14.769531 L 113.335938 14.296875 L 112.859375 14.296875 L 112.859375 13.347656 L 112.386719 13.347656 L 112.386719 12.871094 L 112.859375 12.871094 L 112.859375 11.921875 L 112.386719 11.921875 L 112.386719 11.449219 L 111.4375 11.449219 L 111.4375 10.976562 L 111.910156 10.976562 L 111.910156 10.5 L 110.488281 10.5 L 110.488281 10.976562 L 109.539062 10.976562 L 109.539062 10.5 L 108.113281 10.5 L 108.113281 10.976562 L 109.0625 10.976562 L 109.0625 11.449219 L 108.113281 11.449219 L 108.113281 11.921875 L 108.589844 11.921875 L 108.589844 12.398438 L 107.164062 12.398438 L 107.164062 11.921875 L 107.640625 11.921875 L 107.640625 11.449219 L 107.164062 11.449219 L 107.164062 10.976562 L 107.640625 10.976562 L 107.640625 10.5 L 106.691406 10.5 L 106.691406 12.398438 L 106.214844 12.398438 L 106.214844 11.921875 L 105.742188 11.921875 L 105.742188 11.449219 L 105.265625 11.449219 L 105.265625 11.921875 L 104.792969 11.921875 L 104.792969 12.398438 L 105.265625 12.398438 L 105.265625 13.820312 L 105.742188 13.820312 L 105.742188 13.347656 L 106.214844 13.347656 L 106.214844 12.871094 L 107.164062 12.871094 L 107.164062 13.347656 L 107.640625 13.347656 L 107.640625 12.871094 L 109.539062 12.871094 L 109.539062 13.347656 L 108.589844 13.347656 L 108.589844 13.820312 L 108.113281 13.820312 L 108.113281 13.347656 L 107.640625 13.347656 L 107.640625 13.820312 L 107.164062 13.820312 L 107.164062 14.296875 L 107.640625 14.296875 L 107.640625 15.246094 L 107.164062 15.246094 L 107.164062 15.71875 L 106.214844 15.71875 L 106.214844 15.246094 L 107.164062 15.246094 L 107.164062 14.296875 L 106.691406 14.296875 L 106.691406 14.769531 L 106.214844 14.769531 L 106.214844 14.296875 L 105.265625 14.296875 L 105.265625 15.246094 L 105.742188 15.246094 L 105.742188 16.195312 L 106.214844 16.195312 L 106.214844 16.667969 L 106.691406 16.667969 L 106.691406 16.195312 L 107.164062 16.195312 L 107.164062 17.144531 L 106.214844 17.144531 L 106.214844 16.667969 L 105.742188 16.667969 L 105.742188 16.195312 L 104.792969 16.195312 L 104.792969 15.71875 L 105.265625 15.71875 L 105.265625 15.246094 L 104.316406 15.246094 L 104.316406 16.667969 L 104.792969 16.667969 L 104.792969 17.144531 L 105.742188 17.144531 L 105.742188 17.617188 L 104.792969 17.617188 L 104.792969 18.09375 L 105.265625 18.09375 L 105.265625 18.566406 L 105.742188 18.566406 L 105.742188 19.042969 L 105.265625 19.042969 L 105.265625 19.515625 L 105.742188 19.515625 L 105.742188 20.941406 L 105.265625 20.941406 L 105.265625 21.890625 L 104.792969 21.890625 L 104.792969 21.414062 L 104.316406 21.414062 L 104.316406 22.363281 L 105.265625 22.363281 L 105.265625 22.839844 L 106.214844 22.839844 L 106.214844 22.363281 L 105.742188 22.363281 L 105.742188 21.890625 L 106.214844 21.890625 L 106.214844 22.363281 L 106.691406 22.363281 L 106.691406 21.414062 Z M 106.214844 21.414062 "/></g><path style=" stroke:none;fill-rule:nonzero;fill:#00a693;fill-opacity:1;" d="M 107.640625 21.890625 L 108.113281 21.890625 L 108.113281 21.414062 L 107.640625 21.414062 Z M 107.640625 21.890625 "/><g clip-rule="nonzero" clip-path="url(#6f62bc3a97)"><path style=" stroke:none;fill-rule:nonzero;fill:#00a693;fill-opacity:1;" d="M 117.132812 21.890625 L 116.183594 21.890625 L 116.183594 21.414062 L 115.707031 21.414062 L 115.707031 21.890625 L 115.234375 21.890625 L 115.234375 22.839844 L 115.707031 22.839844 L 115.707031 22.363281 L 116.183594 22.363281 L 116.183594 22.839844 L 117.132812 22.839844 L 117.132812 23.3125 L 117.605469 23.3125 L 117.605469 21.414062 L 117.132812 21.414062 Z M 117.132812 21.890625 "/></g><path style=" stroke:none;fill-rule:nonzero;fill:#00a693;fill-opacity:1;" d="M 109.0625 21.890625 L 109.539062 21.890625 L 109.539062 21.414062 L 108.589844 21.414062 L 108.589844 22.839844 L 109.0625 22.839844 L 109.0625 23.3125 L 109.539062 23.3125 L 109.539062 22.363281 L 109.0625 22.363281 Z M 109.0625 21.890625 "/><path style=" stroke:none;fill-rule:nonzero;fill:#00a693;fill-opacity:1;" d="M 109.539062 22.363281 L 110.488281 22.363281 L 110.488281 21.890625 L 109.539062 21.890625 Z M 109.539062 22.363281 "/><path style=" stroke:none;fill-rule:nonzero;fill:#00a693;fill-opacity:1;" d="M 108.113281 22.839844 L 108.113281 22.363281 L 106.691406 22.363281 L 106.691406 23.3125 L 107.164062 23.3125 L 107.164062 22.839844 Z M 108.113281 22.839844 "/><g clip-rule="nonzero" clip-path="url(#028dea82af)"><path style=" stroke:none;fill-rule:nonzero;fill:#00a693;fill-opacity:1;" d="M 104.316406 23.3125 L 105.265625 23.3125 L 105.265625 22.839844 L 104.316406 22.839844 Z M 104.316406 23.3125 "/></g><path style=" stroke:none;fill-rule:nonzero;fill:#00a693;fill-opacity:1;" d="M 108.113281 23.3125 L 107.164062 23.3125 L 107.164062 23.789062 L 108.589844 23.789062 L 108.589844 22.839844 L 108.113281 22.839844 Z M 108.113281 23.3125 "/><path style=" stroke:none;fill-rule:nonzero;fill:#00a693;fill-opacity:1;" d="M 110.488281 22.839844 L 110.011719 22.839844 L 110.011719 23.789062 L 110.960938 23.789062 L 110.960938 23.3125 L 110.488281 23.3125 Z M 110.488281 22.839844 "/><path style=" stroke:none;fill-rule:nonzero;fill:#00a693;fill-opacity:1;" d="M 110.960938 23.3125 L 111.4375 23.3125 L 111.4375 22.839844 L 110.960938 22.839844 Z M 110.960938 23.3125 "/><path style=" stroke:none;fill-rule:nonzero;fill:#00a693;fill-opacity:1;" d="M 114.285156 22.363281 L 112.859375 22.363281 L 112.859375 21.890625 L 112.386719 21.890625 L 112.386719 22.839844 L 113.335938 22.839844 L 113.335938 23.3125 L 115.234375 23.3125 L 115.234375 22.839844 L 114.285156 22.839844 Z M 114.285156 22.363281 "/><path style=" stroke:none;fill-rule:nonzero;fill:#00a693;fill-opacity:1;" d="M 106.214844 23.789062 L 106.214844 23.3125 L 105.265625 23.3125 L 105.265625 23.789062 Z M 106.214844 23.789062 "/><path style=" stroke:none;fill-rule:nonzero;fill:#00a693;fill-opacity:1;" d="M 112.386719 23.789062 L 112.859375 23.789062 L 112.859375 23.3125 L 112.386719 23.3125 Z M 112.386719 23.789062 "/><path style=" stroke:none;fill-rule:nonzero;fill:#00a693;fill-opacity:1;" d="M 115.707031 23.789062 L 115.707031 23.3125 L 115.234375 23.3125 L 115.234375 23.789062 Z M 115.707031 23.789062 "/><g clip-rule="nonzero" clip-path="url(#e28517138d)"><path style=" stroke:none;fill-rule:nonzero;fill:#00a693;fill-opacity:1;" d="M 116.65625 23.789062 L 117.132812 23.789062 L 117.132812 23.3125 L 116.65625 23.3125 Z M 116.65625 23.789062 "/></g><g style="fill:#00a693;fill-opacity:1;"><g transform="translate(116.118745, 39.175413)"><path style="stroke:none" d="M 12.484375 -13.75 C 8.929688 -14.375 7.15625 -16.398438 7.15625 -19.828125 L 7.15625 -26.890625 C 7.15625 -29.972656 5.34375 -31.5625 1.71875 -31.65625 L 1.71875 -34.984375 C 4.65625 -34.984375 6.960938 -34.285156 8.640625 -32.890625 C 10.328125 -31.503906 11.171875 -29.59375 11.171875 -27.15625 L 11.171875 -19.828125 C 11.171875 -18.285156 11.640625 -17.148438 12.578125 -16.421875 C 13.523438 -15.703125 15.035156 -15.320312 17.109375 -15.28125 L 17.109375 -11.921875 C 15.160156 -11.921875 13.679688 -11.5625 12.671875 -10.84375 C 11.671875 -10.132812 11.171875 -8.953125 11.171875 -7.296875 L 11.171875 -0.046875 C 11.171875 2.390625 10.351562 4.289062 8.71875 5.65625 C 7.082031 7.019531 4.75 7.71875 1.71875 7.75 L 1.71875 4.40625 C 3.488281 4.375 4.835938 3.988281 5.765625 3.25 C 6.691406 2.519531 7.15625 1.34375 7.15625 -0.28125 L 7.15625 -7.390625 C 7.15625 -9.210938 7.59375 -10.597656 8.46875 -11.546875 C 9.34375 -12.503906 10.679688 -13.144531 12.484375 -13.46875 Z M 12.484375 -13.75 "/></g></g><g style="fill:#00a693;fill-opacity:1;"><g transform="translate(93.872223, 22.162126)"><path style="stroke:none" d="M 5.40625 -0.140625 C 5.40625 0.640625 5.625 1.203125 6.0625 1.546875 C 6.507812 1.898438 7.164062 2.082031 8.03125 2.09375 L 8.03125 3.6875 C 6.582031 3.675781 5.460938 3.347656 4.671875 2.703125 C 3.890625 2.054688 3.5 1.148438 3.5 -0.015625 L 3.5 -3.46875 C 3.5 -4.257812 3.257812 -4.820312 2.78125 -5.15625 C 2.300781 -5.5 1.601562 -5.671875 0.6875 -5.671875 L 0.6875 -7.28125 C 1.675781 -7.289062 2.390625 -7.46875 2.828125 -7.8125 C 3.273438 -8.164062 3.5 -8.707031 3.5 -9.4375 L 3.5 -12.921875 C 3.5 -14.097656 3.90625 -15.007812 4.71875 -15.65625 C 5.539062 -16.3125 6.644531 -16.640625 8.03125 -16.640625 L 8.03125 -15.0625 C 6.28125 -15.007812 5.40625 -14.253906 5.40625 -12.796875 L 5.40625 -9.4375 C 5.40625 -7.800781 4.5625 -6.835938 2.875 -6.546875 L 2.875 -6.40625 C 4.5625 -6.113281 5.40625 -5.148438 5.40625 -3.515625 Z M 5.40625 -0.140625 "/></g></g></g></svg>